<svg width="1080" height="1920" viewBox="0 0 1080 1920" xmlns="http://www.w3.org/2000/svg">
  <defs>
    <linearGradient id="bg" x1="0" y1="0" x2="0" y2="1">
      <stop offset="0%" stop-color="#fff0f6"/>
      <stop offset="100%" stop-color="#ffe6ef"/>
    </linearGradient>
  </defs>

  <rect width="1080" height="1920" fill="url(#bg)"/>

  <!-- hearts -->
  <g fill="#f8b4c8" opacity="0.35">
    <path d="M540 720c-90-80-220-150-220-270 0-70 60-130 130-130 50 0 90 30 110 70 20-40 60-70 110-70 70 0 130 60 130 130 0 120-130 190-220 270z"/>
  </g>

  <g fill="#f3a6bf" opacity="0.25" transform="translate(200,300) scale(0.6)">
    <path d="M540 720c-90-80-220-150-220-270 0-70 60-130 130-130 50 0 90 30 110 70 20-40 60-70 110-70 70 0 130 60 130 130 0 120-130 190-220 270z"/>
  </g>

  <g fill="#f9c5d5" opacity="0.2" transform="translate(-200,900) scale(0.8)">
    <path d="M540 720c-90-80-220-150-220-270 0-70 60-130 130-130 50 0 90 30 110 70 20-40 60-70 110-70 70 0 130 60 130 130 0 120-130 190-220 270z"/>
  </g>
</svg>
